<?xml version="1.0" encoding="UTF-8" standalone="no"?>
<!-- Generator: Adobe Illustrator 13.0.0, SVG Export Plug-In . SVG Version: 6.00 Build 14948)  -->

<svg
   xmlns:dc="http://purl.org/dc/elements/1.1/"
   xmlns:cc="http://creativecommons.org/ns#"
   xmlns:rdf="http://www.w3.org/1999/02/22-rdf-syntax-ns#"
   xmlns:svg="http://www.w3.org/2000/svg"
   xmlns="http://www.w3.org/2000/svg"
   xmlns:sodipodi="http://sodipodi.sourceforge.net/DTD/sodipodi-0.dtd"
   xmlns:inkscape="http://www.inkscape.org/namespaces/inkscape"
   version="1.1"
   id="Layer_1"
   x="0px"
   y="0px"
   width="213.02126"
   height="288.83347"
   viewBox="0 0 273.63076 371.01331"
   xml:space="preserve"
   inkscape:version="0.91 r13725"
   sodipodi:docname="java.svg"><metadata
     id="metadata4887"><rdf:RDF><cc:Work
         rdf:about=""><dc:format>image/svg+xml</dc:format><dc:type
           rdf:resource="http://purl.org/dc/dcmitype/StillImage" /><dc:title></dc:title></cc:Work></rdf:RDF></metadata><defs
     id="defs4885" /><sodipodi:namedview
     pagecolor="#ffffff"
     bordercolor="#666666"
     borderopacity="1"
     objecttolerance="10"
     gridtolerance="10"
     guidetolerance="10"
     inkscape:pageopacity="0"
     inkscape:pageshadow="2"
     inkscape:window-width="1125"
     inkscape:window-height="836"
     id="namedview4883"
     showgrid="false"
     fit-margin-top="0"
     fit-margin-left="0"
     fit-margin-right="0"
     fit-margin-bottom="0"
     inkscape:zoom="0.55117727"
     inkscape:cx="-151.27961"
     inkscape:cy="78.170877"
     inkscape:window-x="0"
     inkscape:window-y="27"
     inkscape:window-maximized="0"
     inkscape:current-layer="Layer_1" /><path
     style="fill:#5382a1"
     d="m 270.54876,426.546 -2.038,0 0,-1.14 5.486,0 0,1.14 -2.024,0 0,5.688 -1.424,0 0,-5.688 z m 10.942,0.297 -0.032,0 -2.019,5.392 -0.924,0 -2.006,-5.392 -0.025,0 0,5.392 -1.342,0 0,-6.828 1.975,0 1.86,4.835 1.854,-4.835 1.968,0 0,6.828 -1.31,0 0,-5.392 z"
     id="path4857"
     inkscape:connector-curvature="0" /><path
     style="fill:#5382a1"
     d="m 88.125761,286.925 c 0,0 -14.178,8.245 10.09,11.035 29.399999,3.354 44.425999,2.873 76.824999,-3.259 0,0 8.518,5.341 20.414,9.967 -72.63,31.128 -164.375999,-1.803 -107.328999,-17.743"
     id="path4859"
     inkscape:connector-curvature="0" /><path
     style="fill:#5382a1"
     d="m 79.250761,246.305 c 0,0 -15.902,11.771 8.384,14.283 31.405999,3.24 56.207999,3.505 99.124999,-4.759 0,0 5.936,6.018 15.27,9.309 -87.814,25.678 -185.622999,2.025 -122.778999,-18.833"
     id="path4861"
     inkscape:connector-curvature="0" /><path
     style="fill:#f8981d"
     d="m 154.06976,177.4 c 17.896,20.604 -4.702,39.145 -4.702,39.145 0,0 45.441,-23.458 24.572,-52.833 -19.491,-27.394 -34.438,-41.005 46.479,-87.934 0,0 -127.012999,31.722 -66.349,101.622"
     id="path4863"
     inkscape:connector-curvature="0" /><path
     style="fill:#5382a1"
     d="m 250.12876,316.97 c 0,0 10.492,8.645 -11.555,15.333 -41.923,12.7 -174.487999,16.535 -211.313999,0.506 -13.238,-5.759 11.587,-13.751 19.396,-15.428 8.144,-1.766 12.798,-1.437 12.798,-1.437 -14.722,-10.371 -95.157,20.364 -40.857,29.166 148.083999,24.015 269.942999,-10.814 231.531999,-28.14"
     id="path4865"
     inkscape:connector-curvature="0" /><path
     style="fill:#5382a1"
     d="m 94.943761,204.218 c 0,0 -67.431,16.016 -23.879,21.832 18.389,2.462 55.046999,1.905 89.192999,-0.956 27.906,-2.354 55.927,-7.359 55.927,-7.359 0,0 -9.84,4.214 -16.959,9.075 -68.475,18.009 -200.7559993,9.631 -162.673999,-8.79 32.206,-15.568 58.392,-13.802 58.392,-13.802"
     id="path4867"
     inkscape:connector-curvature="0" /><path
     style="fill:#5382a1"
     d="m 215.90676,271.832 c 69.608,-36.171 37.424,-70.931 14.96,-66.248 -5.506,1.146 -7.961,2.139 -7.961,2.139 0,0 2.044,-3.202 5.948,-4.588 44.441,-15.624 78.619,46.081 -14.346,70.52 0,0.001 1.077,-0.962 1.399,-1.823"
     id="path4869"
     inkscape:connector-curvature="0" /><path
     style="fill:#f8981d"
     d="m 173.93976,0 c 0,0 38.55,38.563 -36.563,97.862 -60.232999,47.568 -13.735,74.69 -0.025,105.678 C 102.19276,171.818 76.390761,143.893 93.700761,117.903 119.10776,79.752 189.49376,61.255 173.93976,0"
     id="path4871"
     inkscape:connector-curvature="0" /><path
     style="fill:#5382a1"
     d="m 101.78376,369.847 c 66.815,4.277 169.417,-2.373 171.847,-33.988 0,0 -4.671,11.985 -55.219,21.503 -57.028,10.732 -127.363999,9.479 -169.080999,2.601 10e-4,-0.001 8.54,7.068 52.452999,9.884"
     id="path4873"
     inkscape:connector-curvature="0" /><path
     style="fill:#5382a1"
     d="m 90.833761,490.649 c -6.303,5.467 -12.96,8.536 -18.934,8.536 -8.527,0 -13.134,-5.113 -13.134,-13.314 0,-8.871 4.936,-15.357 24.739,-15.357 l 7.328,0 0,20.135 m 17.392999,19.623 0,-60.742 c 0,-15.517 -8.849999,-25.756 -30.187999,-25.756 -12.457,0 -23.369,3.076 -32.238,6.999 l 2.56,10.752 c 6.983,-2.563 16.022,-4.949 24.894,-4.949 12.292,0 17.58,4.949 17.58,15.181 l 0,7.677 -6.135,0 c -29.865,0 -43.337,11.593 -43.337,28.994 0,15.017 8.878,23.553 25.594,23.553 10.745,0 18.766,-4.436 26.264,-10.928 l 1.361,9.22 13.644999,0 z"
     id="path4875"
     inkscape:connector-curvature="0" /><path
     style="fill:#5382a1"
     d="m 166.26976,510.272 -21.692,0 -26.106,-84.96 18.943,0 16.199,52.2 3.601,15.699 c 8.195,-22.698 13.991,-45.726 16.89,-67.899 l 18.427,0 c -4.937,27.977 -13.821,58.685 -26.262,84.96"
     id="path4877"
     inkscape:connector-curvature="0" /><path
     style="fill:#5382a1"
     d="m 249.48276,490.649 c -6.315,5.467 -12.984,8.536 -18.958,8.536 -8.512,0 -13.131,-5.113 -13.131,-13.314 0,-8.871 4.948,-15.357 24.749,-15.357 l 7.34,0 0,20.135 m 17.39,19.623 0,-60.742 c 0,-15.517 -8.872,-25.756 -30.185,-25.756 -12.466,0 -23.382,3.076 -32.247,6.999 l 2.556,10.752 c 6.986,-2.563 16.042,-4.949 24.907,-4.949 12.283,0 17.579,4.949 17.579,15.181 l 0,7.677 -6.145,0 c -29.874,0 -43.34,11.593 -43.34,28.994 0,15.017 8.871,23.553 25.584,23.553 10.751,0 18.769,-4.436 26.28,-10.928 l 1.366,9.22 13.645,0 z"
     id="path4879"
     inkscape:connector-curvature="0" /><path
     style="fill:#5382a1"
     d="m 22.291761,524.7 c -4.958,7.239 -12.9660003,12.966 -21.73300034,16.206 L -8.0282393,530.801 c 6.673,-3.424 12.396,-8.954 15.055,-14.105 2.3,-4.581 3.2520003,-10.485 3.2520003,-24.604 l 0,-96.995 18.478,0 0,95.666 c -0.001,18.876 -1.51,26.501 -6.465,33.937"
     id="path4881"
     inkscape:connector-curvature="0" /></svg>