<?xml version="1.0" encoding="UTF-8" standalone="no"?>
<!-- Generator: Adobe Illustrator 22.1.0, SVG Export Plug-In . SVG Version: 6.00 Build 0)  -->

<svg
   xmlns:dc="http://purl.org/dc/elements/1.1/"
   xmlns:cc="http://creativecommons.org/ns#"
   xmlns:rdf="http://www.w3.org/1999/02/22-rdf-syntax-ns#"
   xmlns:svg="http://www.w3.org/2000/svg"
   xmlns="http://www.w3.org/2000/svg"
   xmlns:sodipodi="http://sodipodi.sourceforge.net/DTD/sodipodi-0.dtd"
   xmlns:inkscape="http://www.inkscape.org/namespaces/inkscape"
   version="1.1"
   id="Layer_1"
   x="0px"
   y="0px"
   viewBox="0 0 24.0376 28.924999"
   xml:space="preserve"
   inkscape:version="0.91 r13725"
   sodipodi:docname="pytorch.svg"
   width="24.0376"
   height="28.924999"><metadata
     id="metadata4238"><rdf:RDF><cc:Work
         rdf:about=""><dc:format>image/svg+xml</dc:format><dc:type
           rdf:resource="http://purl.org/dc/dcmitype/StillImage" /><dc:title></dc:title></cc:Work></rdf:RDF></metadata><defs
     id="defs4236" /><sodipodi:namedview
     pagecolor="#ffffff"
     bordercolor="#666666"
     borderopacity="1"
     objecttolerance="10"
     gridtolerance="10"
     guidetolerance="10"
     inkscape:pageopacity="0"
     inkscape:pageshadow="2"
     inkscape:window-width="1920"
     inkscape:window-height="1127"
     id="namedview4234"
     showgrid="false"
     fit-margin-top="0"
     fit-margin-left="0"
     fit-margin-right="0"
     fit-margin-bottom="0"
     inkscape:zoom="7.1206811"
     inkscape:cx="79.574998"
     inkscape:cy="9.6249996"
     inkscape:window-x="0"
     inkscape:window-y="27"
     inkscape:window-maximized="1"
     inkscape:current-layer="Layer_1" /><style
     type="text/css"
     id="style4208">
	.st0{fill:#EE4C2C;}
	.st1{fill:#252525;}
</style><g
     id="g4210"
     transform="translate(-20.275,-0.8)"><path
       class="st0"
       d="m 40.8,9.3 -2.1,2.1 c 3.5,3.5 3.5,9.2 0,12.7 -3.5,3.5 -9.2,3.5 -12.7,0 -3.5,-3.5 -3.5,-9.2 0,-12.7 l 0,0 5.6,-5.6 0.7,-0.8 0,0 0,-4.2 -8.5,8.5 c -4.7,4.7 -4.7,12.2 0,16.9 4.7,4.7 12.2,4.7 16.9,0 4.8,-4.7 4.8,-12.3 0.1,-16.9 z"
       id="path4212"
       inkscape:connector-curvature="0"
       style="fill:#ee4c2c" /><circle
       class="st0"
       cx="36.599998"
       cy="7.0999999"
       r="1.6"
       id="circle4214"
       style="fill:#ee4c2c" /></g></svg>