<svg version="1" xmlns="http://www.w3.org/2000/svg" width="682.667" height="682.667" viewBox="0 0 512.000000 512.000000"><path d="M74.4 136.5c1 .8 2.3 1.2 2.7.9.5-.3.9-.1.9.5s1.4 1.8 3.2 2.7c1.7.9 3.6 2 4.2 2.5 2.1 1.8 8.7 5.9 9.4 5.9.4 0 2 1.1 3.6 2.5 2.8 2.4 4 2.9 5.9 2.6.5-.1.6.3.3.8-.5.8.2 1.3 3.2 2.3.6.2 2.6 1.7 5.6 4.3.6.5 1.8 1.1 2.6 1.3.8.2 1.7.8 1.8 1.3.2.5.8.9 1.3.9 1.1 0 7.2 4.2 7.7 5.2.2.5.9.8 1.6.8.7 0 2.2.9 3.4 2 1.2 1.2 2.2 1.9 2.2 1.6 0-.3 3 1.5 6.8 4 7.4 4.9 7.5 5 14.7 9.6 2.8 1.8 5.2 3.5 5.5 3.8.3.3 2.2 1.4 4.2 2.3 2.1 1 4.2 2.5 4.7 3.5.6.9 1.1 1.3 1.1.9 0-.5 1.3.1 2.9 1.2 1.6 1.2 3.4 2.1 4 2.1.6 0 1.1.5 1.1 1 0 .6 1.2 1.6 2.8 2.3 1.5.6 3.2 1.5 3.7 2 .6.4 4.8 3.2 9.5 6.2s9.1 5.9 9.8 6.5c.6.6 1.2.7 1.2.3 0-.4.4-.3.8.3s2.5 2.1 4.7 3.3c2.2 1.1 3.5 2.1 3 2.1-.6 0 .6.8 2.5 1.7 1.9 1 3.7 2 4 2.3 1.3 1.4 7 5 8 5 .5 0 1 .3 1 .8 0 .4 1.3 1.3 2.8 2 1.6.6 3.8 2.1 5 3.2 1.2 1.2 2.2 1.8 2.2 1.6 0-.5 6.4 3.5 8.8 5.4.6.6 1.2.8 1.2.6 0-.7 11 6.3 12.8 8.1.8.7 1.8 1.1 2.3.8.5-.4.9-.2.9.3s1.4 1.5 3 2.2c1.7.7 3 1.7 3 2.3 0 .6.3.7.6.4.4-.3 2.3.7 4.2 2.3 1.9 1.6 3.9 2.7 4.4 2.4.4-.3.8-.1.8.3 0 .5 2 1.9 4.5 3.3s4.5 2.8 4.5 3.3c0 .4.4.6.9.2.6-.3 1.3.1 1.8.8.4.7 2.3 1.9 4.1 2.6 1.7.8 3.2 1.7 3.2 2.1 0 .4 1.8 1.5 4 2.5s4 2.1 4 2.5c0 .4 1.4 1.3 3 2 1.7.7 3 1.6 3 2.1s.7.9 1.5.9 2.4.9 3.6 2.1c1.1 1.1 2.3 1.8 2.6 1.5.3-.3 1.3.2 2.2 1.2.9.9 2.3 1.8 3.1 2 .8.2 1.7.8 1.8 1.3.2.5 1 .9 1.7.9s1.5.4 1.7.8c.2.4 2 1.8 4.2 3 3.6 2.2 3.9 2.2 5.2.5.7-1 1.4-2.4 1.4-3.1 0-.6.5-1.2 1.2-1.2.6 0 .9-.3.5-.6-.3-.4-.1-1.2.6-2 2.2-2.5 3.2-4 3.5-5.4.2-.8 1-2.2 1.8-3.1.8-.9 1.1-1.9.7-2.2-.3-.4-.1-.7.5-.7.7 0 1.2-.5 1.2-1 0-.6 1.1-2.9 2.6-5.1 1.4-2.2 3.3-5.5 4.3-7.3 6.6-11.7 11.7-20.1 12.4-20.4.4-.2.5-.7.2-1.2-.3-.4.2-1.3 1-2s1.5-1.8 1.5-2.5.7-1.8 1.5-2.5 1.3-1.5 1-1.9c-.2-.4.4-1.3 1.5-2.1 1-.7 1.6-1.8 1.4-2.5-.3-.6.2-1.8 1.1-2.5.8-.7 1.5-1.7 1.5-2.2 0-.5.7-1.6 1.5-2.5.8-.8 1.3-1.9 1-2.4-.4-.5-.2-.9.3-.9s1.5-1.4 2.2-3c.7-1.7 1.7-3 2.2-3 .5 0 .7-.4.4-.9-.3-.4.3-1.6 1.3-2.5 1.1-1 2.2-2.9 2.6-4.4.3-1.4 1.4-3.2 2.3-4 1.2-.9 1.3-1.2.2-.7-1.2.5-1.2.4.1-.7s3.2-4.7 2.9-5.6c0-.1.9-1.2 2-2.4s2-2.7 2-3.3c0-.6.9-2.1 2-3.3 1.2-1.2 1.9-2.2 1.6-2.2-.3 0 1.5-3.4 3.9-7.5 2.5-4.2 4.5-8 4.5-8.4 0-.5.3-1.1.8-1.3.4-.2 3.2-4.6 6.1-9.8 2.9-5.2 5.8-9.7 6.2-9.8.5-.2.7-.8.3-1.3-.3-.5 0-.9.6-.9.7 0 1-.7.6-1.5-.3-.8-.2-1.5.3-1.5.4 0 1.9-2 3.2-4.5 1.3-2.5 2.7-4.5 3-4.5.4 0 .9-.9 1.2-2 .5-2 0-2-183.1-2-159.9.1-183.5.2-181.8 1.5zM256 285.7c-.1 1.6-.3 26.2-.4 54.8-.2 28.6-.5 52-.5 52-.6 0-.4 60.6.2 61.1.4.4.7 0 .7-.9s.5-1.7 1.1-1.7c.5 0 .7-.5.4-1-.3-.6.1-1.3.9-1.6.9-.3 1.4-1 1.1-1.4-.3-.5.1-1.4.8-2.2.7-.7 2-2.8 2.8-4.6.7-1.7 1.8-3.2 2.2-3.2.5 0 .5-.5.2-1-.3-.6-.2-1 .4-1 .6 0 1.3-1.1 1.7-2.4.3-1.4 1.2-2.7 2-3 .8-.3 1.4-1.5 1.4-2.6s.9-2.9 2-4 1.7-2 1.3-2c-.3 0 .1-.8.9-1.8.9-.9 1.9-2.7 2.2-4 .4-1.2 1.2-2.2 1.7-2.2.6 0 .7-.4.4-1-.3-.5-.1-1 .5-1s.9-.4.6-.9c-.4-.5-.3-1.1.2-1.3.9-.4 8.2-12.6 8.2-13.8 0-.5.3-1 .8-1.2.7-.3 2.2-3 7.3-12.5 1.2-2.3 2.6-4 3-3.7.4.2.6-.4.4-1.5-.2-1.1.3-2.2 1.1-2.5.8-.3 1.4-1.2 1.4-2.1 0-.8.5-1.5 1.1-1.5.5 0 .7-.5.4-1-.3-.6-.1-1 .4-1 .6 0 1.1-.8 1.1-1.9 0-1 .7-2.4 1.5-3.1.8-.7 1.5-1.9 1.5-2.6 0-.8.4-1.4.8-1.4s1.9-2.2 3.3-5c1.3-2.7 2.8-5 3.2-5 .5 0 .5-.5.2-1-.3-.6-.2-1 .3-1s1.7-1.9 2.8-4.3c1-2.3 2.5-4.7 3.3-5.3.8-.7 1.1-1.6.6-2.4-.5-.9-.4-1.1.3-.6.7.4 1.2.2 1.2-.4 0-.7.9-2.5 2-4l2-2.8-2.9-2.1c-1.6-1.2-3.4-2.1-4-2.1-.6 0-1.1-.5-1.1-1 0-.6-.7-1-1.5-1-.9 0-1.8-.6-2.1-1.4-.3-.9-1.2-1.2-2.1-.9-1 .4-1.4.2-1-.4.4-.6-.3-1.3-1.6-1.7-1.2-.3-3.2-1.5-4.5-2.6-1.2-1.1-2.2-1.8-2.2-1.5 0 .3-.6.1-1.2-.5-2.4-2-8.6-5.8-12.2-7.5-2-1-3.6-2.1-3.6-2.6s-.5-.9-1.1-.9c-.6 0-2.3-.9-3.9-2-1.5-1.1-3-1.6-3.4-1.2-.4.4-.6 0-.4-.8.2-.9-.6-1.6-2-1.8-1.3-.2-2.6-1-2.9-1.8-.3-.8-.9-1.1-1.4-.8-.5.3-.9 0-.9-.5 0-.6-.7-1.1-1.5-1.1s-1.5-.3-1.5-.8c0-.8-2.6-2.3-7.2-4.2-1.6-.7-2.8-1.6-2.8-2.1s-.9-.9-2-.9c-1.5 0-2 .7-2 2.7z"/></svg>