<svg xmlns="http://www.w3.org/2000/svg" viewBox="0 0 30.56 32.32"><defs><style>.cls-1{fill:#005386;fill-rule:evenodd;}</style></defs><title>Asset 1</title><g id="Layer_2" data-name="Layer 2"><g id="svg9123"><path id="Fill-1" class="cls-1" d="M15.1,0c2.78-.13,6.08.46,6.69,2.42,1,3.22-4.09,7.92-8.53,10.22a4.49,4.49,0,0,1-2,.69.32.32,0,0,1-.22-.48,7.88,7.88,0,0,1,1.84-1.78c5-3.91,6.63-6.77,5.68-7.94-.6-.74-3.14-1.26-5.77-1.26-.72,0-2.6.17-2.79-.49S12.33.15,15.1,0"/><path id="Fill-3" class="cls-1" d="M9.21,14.78c2.39-.14,5.29.28,6.92,1.53a2.91,2.91,0,0,1,1.05,3.06C16.24,23.08,12.73,27.56,4.93,31,2.45,32.11.5,32.53.09,32.23s.84-2.76,1.22-3.57a67.46,67.46,0,0,1,4.32-7.54c.56-.86,1.42-2.36,2.2-2.24s-.12,1.7-.66,2.71c-.9,1.7-3.39,6.41-2.57,6.69,1.82.63,10.34-5.86,9.08-9.47C13.1,17.13,9.4,17,7.07,17c-1.06,0-3.38.25-3.51-.56s3.52-1.5,5.65-1.63"/><path id="Fill-5" class="cls-1" d="M27.65,10.81c1.43.26,2.6.46,2.87,1.06s-1.26.73-2.05.75c-3.77.07-6,.14-6.16,1.43-.14,1.64,1.62,3.3,3.35,5.63,1.59,2.13,3.39,4.22,2.87,6.18-.64,2.43-3.63,2.95-6.47,2.95a34.44,34.44,0,0,1-6.39-.65c-1.35-.27-1.15-.93-.79-1.15a25.37,25.37,0,0,1,4.29-.34c1.31-.08,5.13-.07,5.72-1.05.73-1.19-1.05-3.24-2.69-5.38-2.05-2.68-4.29-5.44-3.11-7.46,1.54-2.6,6-2.42,8.56-2"/></g></g></svg>