<svg xmlns="http://www.w3.org/2000/svg" viewBox="0 0 346 82.27"><defs><style>.cls-1{fill:none;stroke:#394d54;stroke-linecap:round;stroke-linejoin:round;stroke-width:10.5px;}</style></defs><title>path12</title><g id="Layer_2" data-name="Layer 2"><g id="svg2"><path id="path12" class="cls-1" d="M203.83,76.68l-.05-25.56-.12-45.66m25.85,19.68-25.73,26,25.86,25.64M57.29,51.46A26.14,26.14,0,0,0,52.6,35.84,25.81,25.81,0,0,0,32.16,24.76c-.55,0-1.1,0-1.65,0a28.48,28.48,0,0,0-9.23,1.82C2.88,34.27-.38,59.83,15.15,71.39c13.44,10,33,5.92,39.77-9.35a28.12,28.12,0,0,0,2.37-10.58V5.25M181.44,27.8a23,23,0,0,0-12.65-3.34c-.48,0-1,0-1.39,0-12.72.55-24.5,9.53-24.5,27,0,20.6,22.08,31.72,38.59,22m74.13-2.24,39.06-33.47a27.41,27.41,0,0,0-1.57-2.63,26.64,26.64,0,0,0-21.75-10.57c-20.91,0-36.58,27-15.74,46.67a18.74,18.74,0,0,0,5.63,3.34c7.65,3.19,18.12,2.93,23.78-1.27M100,24.63c-.6,0-1.19.07-1.78.08C82.39,25,71,41.47,74.43,56.75c3.37,14.88,19.63,23.69,33.68,18.83,16.36-4.29,23-24.89,14-38.81A26,26,0,0,0,100,24.63Zm240.72.51a25.28,25.28,0,0,0-17.3,6.6c-7.31,6-8.9,13.65-8.8,23.27l.21,21.88"/></g></g></svg>