<svg xmlns="http://www.w3.org/2000/svg" viewBox="0 0 37.92 49.99"><defs><style>.cls-1{fill:#767677;}.cls-2{fill:#f37726;}.cls-3{fill:#989798;}.cls-4{fill:#6f7070;}</style></defs><title>Asset 1</title><g id="Layer_2" data-name="Layer 2"><g id="Layer_1-2" data-name="Layer 1"><path id="path7_fill" data-name="path7 fill" class="cls-1" d="M36.83,2.84a3,3,0,0,1-.42,1.68,3,3,0,0,1-1.28,1.15,2.9,2.9,0,0,1-1.69.24,2.93,2.93,0,0,1-1.55-.75A3,3,0,0,1,31,3.68,3.09,3.09,0,0,1,31.12,2a3,3,0,0,1,1-1.38A3,3,0,0,1,33.76,0a3,3,0,0,1,3.07,2.84Z"/><path id="path8_fill" data-name="path8 fill" class="cls-2" d="M19.64,37.8c-7.85,0-14.7-2.87-18.26-7.13a19.54,19.54,0,0,0,7.07,9.47,19.22,19.22,0,0,0,22.4,0,19.54,19.54,0,0,0,7.07-9.47C34.35,34.93,27.49,37.8,19.64,37.8Z"/><path id="path9_fill" data-name="path9 fill" class="cls-2" d="M19.64,10.11c7.85,0,14.71,2.88,18.27,7.13a19.54,19.54,0,0,0-7.07-9.47,19.22,19.22,0,0,0-22.4,0,19.54,19.54,0,0,0-7.07,9.47C4.94,13,11.79,10.11,19.64,10.11Z"/><path id="path10_fill" data-name="path10 fill" class="cls-3" d="M8.87,46.08a3.8,3.8,0,0,1-.54,2.11A3.72,3.72,0,0,1,4.59,50,3.68,3.68,0,0,1,2.64,49a3.74,3.74,0,0,1-1.09-1.88A3.65,3.65,0,0,1,1.67,45,3.69,3.69,0,0,1,3,43.22a3.65,3.65,0,0,1,2-.72,3.7,3.7,0,0,1,2.67,1,3.8,3.8,0,0,1,1.2,2.59Z"/><path id="path11_fill" data-name="path11 fill" class="cls-4" d="M2.27,9.15a2.19,2.19,0,0,1-1.22-.32,2.29,2.29,0,0,1-.85-1A2.22,2.22,0,0,1,0,6.61,2.1,2.1,0,0,1,.58,5.46a2.16,2.16,0,0,1,3.36.19,2.18,2.18,0,0,1,.42,1.21,2.24,2.24,0,0,1-.57,1.58,2.2,2.2,0,0,1-1.52.71Z"/></g></g></svg>