<svg xmlns="http://www.w3.org/2000/svg" viewBox="0 0 19.18 18.62"><defs><style>.cls-1{fill:#ffc200;}</style></defs><title>Asset 1</title><g id="Layer_2" data-name="Layer 2"><g id="Layer_1-2" data-name="Layer 1"><path class="cls-1" d="M1.25,11.34c-.2.68.48,1.25,1.07,1.32-.22.23-.55.21-.82.37a2.18,2.18,0,0,0,2.69,1,4.88,4.88,0,0,0-1.68,2.76c0,.06.2,0,.29.05a4.18,4.18,0,0,0,2.65-1.08c.3.74-.55,1.08-1.13,1.17.65.92,1.88.33,2.31-.5-.08.6-.16,1.2-.29,1.79a2.42,2.42,0,0,0,2.28-1.68h0a2.49,2.49,0,0,1-.19,1.74A1.32,1.32,0,0,0,9.86,18a4.37,4.37,0,0,0,.67-1.26,5.19,5.19,0,0,1,.69,1.89c1.12-.21,1.44-1.53,1.37-2.47a4.69,4.69,0,0,0,2.48,2,3.84,3.84,0,0,0-.8-3.26c.37,0,.85,0,1.13.29a1.94,1.94,0,0,1,.3,1c1.09-.57.46-2-.33-2.49.6.2,1.22.36,1.8.58a2.49,2.49,0,0,0-1-2.24,2.44,2.44,0,0,1,1.32.68c.43-.36.06-1.41-.09-1.64a4.48,4.48,0,0,0-.81-.83,5.2,5.2,0,0,1,2-.17,1.82,1.82,0,0,0-1.14-1.67c-.32-.08-.59-.22-.92-.27a4.62,4.62,0,0,0,2.62-1.91,4.17,4.17,0,0,0-3.34-.06c.14-1.12.85-1,1.59-.91-.33-1-1.57-.93-2.27-.44a11,11,0,0,1,.93-1.49,2.63,2.63,0,0,0-2.85.79,3,3,0,0,1,.92-1.75c-.77-.82-1.95-.05-2.53.64a6,6,0,0,1,.08-2c-1.2-.16-1.89.82-2.15,1.82A5.09,5.09,0,0,0,8,0a3.82,3.82,0,0,0-.55,3.08c-.84-.12-.66-1-.49-1.58C5.8,1.64,5.75,3,6.22,3.77L4.82,2.63A3,3,0,0,0,4.5,4.06c-.18-.12-.2-.4-.35-.53-1,.54-.62,1.84-.13,2.6a5.92,5.92,0,0,1-1.93-.68c-.49,1,.27,2.14,1.12,2.64A5.41,5.41,0,0,0,0,8.69,4.22,4.22,0,0,0,1.66,10c-.19.09-.86-.2-1.07-.12,0,.05,1,1.53,2.26,1.42-.34.61-1.24.42-1.6,0"/></g></g></svg>