<?xml version="1.0" encoding="UTF-8" standalone="no"?>
<svg
   xmlns:dc="http://purl.org/dc/elements/1.1/"
   xmlns:cc="http://creativecommons.org/ns#"
   xmlns:rdf="http://www.w3.org/1999/02/22-rdf-syntax-ns#"
   xmlns:svg="http://www.w3.org/2000/svg"
   xmlns="http://www.w3.org/2000/svg"
   xmlns:sodipodi="http://sodipodi.sourceforge.net/DTD/sodipodi-0.dtd"
   xmlns:inkscape="http://www.inkscape.org/namespaces/inkscape"
   version="1.1"
   width="90.210907"
   height="101.70515"
   id="svg3030"
   inkscape:version="0.91 r13725"
   sodipodi:docname="nodejs.svg">
  <metadata
     id="metadata4301">
    <rdf:RDF>
      <cc:Work
         rdf:about="">
        <dc:format>image/svg+xml</dc:format>
        <dc:type
           rdf:resource="http://purl.org/dc/dcmitype/StillImage" />
        <dc:title></dc:title>
      </cc:Work>
    </rdf:RDF>
  </metadata>
  <sodipodi:namedview
     pagecolor="#ffffff"
     bordercolor="#666666"
     borderopacity="1"
     objecttolerance="10"
     gridtolerance="10"
     guidetolerance="10"
     inkscape:pageopacity="0"
     inkscape:pageshadow="2"
     inkscape:window-width="1920"
     inkscape:window-height="1127"
     id="namedview4299"
     showgrid="false"
     fit-margin-top="0"
     fit-margin-left="0"
     fit-margin-right="0"
     fit-margin-bottom="0"
     inkscape:zoom="1.2031092"
     inkscape:cx="-390.28183"
     inkscape:cy="134.28886"
     inkscape:window-x="0"
     inkscape:window-y="27"
     inkscape:window-maximized="1"
     inkscape:current-layer="svg3030" />
  <defs
     id="defs3032" />
  <path
     inkscape:connector-curvature="0"
     style="fill:#83cd29;fill-opacity:1;fill-rule:evenodd;stroke:none"
     id="path28"
     d="m 45.10546,0 c -1.37141,0 -2.70474,0.2836 -3.8843,0.95126 L 3.8843,22.51309 C 1.46811,23.90421 0,26.53374 0,29.33044 l 0,43.04452 c 0,2.79518 1.46811,5.42166 3.8843,6.8171 l 9.75039,5.6284 c 4.73726,2.33476 6.48441,2.29874 8.64059,2.29874 7.01394,0 11.01873,-4.2558 11.01873,-11.65278 l 0,-42.48949 c 0,-0.60069 -0.52002,-1.03066 -1.1098,-1.03066 l -4.67701,0 c -0.5993,0 -1.10981,0.42997 -1.10981,1.03066 l 0,42.48949 c 0,3.27867 -3.41501,6.57586 -8.95767,3.80503 L 7.29298,73.32622 C 6.93467,73.1309 6.6588,72.78616 6.6588,72.37496 l 0,-43.04452 c 0,-0.40866 0.2727,-0.82366 0.63418,-1.0304 L 44.55056,6.81735 c 0.34879,-0.2004 0.76417,-0.2004 1.1098,0 l 37.25758,21.48269 c 0.35514,0.21308 0.63417,0.60931 0.63417,1.0304 l 0,43.04452 c 0,0.4112 -0.20623,0.83229 -0.5549,1.03041 L 45.66036,94.88806 c -0.32026,0.19025 -0.76101,0.19025 -1.1098,0 l -9.59185,-5.70755 c -0.28538,-0.16742 -0.67539,-0.15474 -0.95126,0 -2.64766,1.50096 -3.14549,1.67548 -5.62827,2.53669 -0.61197,0.21308 -1.54104,0.54463 0.31709,1.58543 l 12.52489,7.37212 c 1.19224,0.68997 2.52083,1.0304 3.8843,1.0304 1.38249,0 2.69206,-0.34043 3.8843,-1.0304 L 86.32661,79.19206 c 2.4162,-1.40533 3.8843,-4.02192 3.8843,-6.8171 l 0,-43.04452 c 0,-2.7967 -1.4681,-5.42039 -3.8843,-6.81735 L 48.98976,0.95126 C 47.81971,0.2836 46.47687,0 45.10546,0 Z m 9.9882,30.75783 c -10.63189,0 -16.96409,4.52469 -16.96409,12.04926 0,8.16281 6.28464,10.40549 16.48846,11.41509 12.20781,1.19504 13.15906,2.98746 13.15906,5.39046 0,4.16803 -3.32306,5.94523 -11.17727,5.94523 -9.86771,0 -12.03658,-2.46337 -12.76271,-7.37211 -0.0855,-0.52637 -0.49148,-0.95126 -1.03052,-0.95126 l -4.83556,0 c -0.59612,0 -1.1098,0.51266 -1.1098,1.1098 0,6.28337 3.41818,13.71409 19.73859,13.71409 11.81462,0 18.62879,-4.63757 18.62879,-12.76283 0,-8.055 -5.50461,-10.21702 -16.96409,-11.73218 -11.57998,-1.53216 -12.68343,-2.282 -12.68343,-4.99397 0,-2.23863 0.9354,-5.23217 9.51257,-5.23217 7.66079,0 10.49237,1.65214 11.6529,6.8176 0.10147,0.48552 0.52954,0.87185 1.03053,0.87185 l 4.83556,0 c 0.29806,0 0.58661,-0.18264 0.79272,-0.39648 0.20293,-0.2283 0.34562,-0.48552 0.31708,-0.79246 -0.74832,-8.89591 -6.681,-13.07992 -18.62879,-13.07992 z"
     sodipodi:nodetypes="sccssccsssssssccssccccssccccccccsccssccssscsscssssscsscssccs" />
</svg>
